<svg width="20" height="20" viewBox="0 0 20 20" fill="none" xmlns="http://www.w3.org/2000/svg">
<path d="M13.3333 3.33325H15C15.442 3.33325 15.8659 3.50885 16.1785 3.82141C16.4911 4.13397 16.6666 4.55789 16.6666 4.99992V16.6666C16.6666 17.1086 16.4911 17.5325 16.1785 17.8451C15.8659 18.1577 15.442 18.3333 15 18.3333H4.99998C4.55795 18.3333 4.13403 18.1577 3.82147 17.8451C3.50891 17.5325 3.33331 17.1086 3.33331 16.6666V4.99992C3.33331 4.55789 3.50891 4.13397 3.82147 3.82141C4.13403 3.50885 4.55795 3.33325 4.99998 3.33325H6.66665" stroke="white" stroke-width="1.66667" stroke-linecap="round" stroke-linejoin="round"/>
<path d="M12.5 1.66675H7.50002C7.03978 1.66675 6.66669 2.03984 6.66669 2.50008V4.16675C6.66669 4.62699 7.03978 5.00008 7.50002 5.00008H12.5C12.9603 5.00008 13.3334 4.62699 13.3334 4.16675V2.50008C13.3334 2.03984 12.9603 1.66675 12.5 1.66675Z" stroke="white" stroke-width="1.66667" stroke-linecap="round" stroke-linejoin="round"/>
</svg>
