<svg width="274" height="117" viewBox="0 0 274 117" fill="none" xmlns="http://www.w3.org/2000/svg">
<path d="M38.1284 57.8147C41.3123 58.4932 43.8699 60.0852 45.8011 62.5905C47.7323 65.0437 48.6979 67.8622 48.6979 71.0461C48.6979 75.6393 47.0799 79.2929 43.8438 82.0071C40.6599 84.669 36.1972 86 30.4558 86H4.85413V31.0387H29.5946C35.1794 31.0387 39.5377 32.3174 42.6694 34.875C45.8533 37.4326 47.4452 40.9035 47.4452 45.2879C47.4452 48.524 46.584 51.212 44.8616 53.352C43.1914 55.492 40.947 56.9796 38.1284 57.8147ZM18.2422 53.2737H27.0109C29.2031 53.2737 30.8733 52.804 32.0216 51.8645C33.2221 50.8728 33.8224 49.4374 33.8224 47.5584C33.8224 45.6794 33.2221 44.244 32.0216 43.2523C30.8733 42.2606 29.2031 41.7647 27.0109 41.7647H18.2422V53.2737ZM28.107 75.1956C30.3514 75.1956 32.0738 74.6998 33.2743 73.7081C34.527 72.6642 35.1533 71.1766 35.1533 69.2454C35.1533 67.3142 34.5009 65.8005 33.196 64.7044C31.9433 63.6083 30.1948 63.0603 27.9504 63.0603H18.2422V75.1956H28.107ZM53.801 64.0781C53.801 59.5893 54.6361 55.6486 56.3064 52.2559C58.0288 48.8633 60.3515 46.2535 63.2744 44.4267C66.1973 42.5999 69.4595 41.6864 73.061 41.6864C76.1405 41.6864 78.8285 42.3128 81.1251 43.5655C83.4739 44.8181 85.2746 46.4623 86.5273 48.4979V42.3128H99.9153V86H86.5273V79.8149C85.2224 81.8505 83.3956 83.4946 81.0468 84.7473C78.7502 86 76.0622 86.6263 72.9827 86.6263C69.4334 86.6263 66.1973 85.7129 63.2744 83.8861C60.3515 82.0071 58.0288 79.3712 56.3064 75.9786C54.6361 72.5337 53.801 68.5669 53.801 64.0781ZM86.5273 64.1564C86.5273 60.8159 85.5878 58.1801 83.7087 56.2489C81.8819 54.3176 79.6375 53.352 76.9756 53.352C74.3136 53.352 72.0432 54.3176 70.1641 56.2489C68.3373 58.1279 67.4239 60.7376 67.4239 64.0781C67.4239 67.4186 68.3373 70.0805 70.1641 72.0639C72.0432 73.9952 74.3136 74.9608 76.9756 74.9608C79.6375 74.9608 81.8819 73.9952 83.7087 72.0639C85.5878 70.1327 86.5273 67.4969 86.5273 64.1564ZM122.989 49.594C124.555 47.193 126.512 45.314 128.861 43.9569C131.21 42.5477 133.819 41.843 136.69 41.843V56.014H133.01C129.67 56.014 127.165 56.7447 125.494 58.2062C123.824 59.6154 122.989 62.1208 122.989 65.7222V86H109.601V42.3128H122.989V49.594ZM156.477 48.4979C157.73 46.4623 159.531 44.8181 161.88 43.5655C164.228 42.3128 166.916 41.6864 169.944 41.6864C173.545 41.6864 176.807 42.5999 179.73 44.4267C182.653 46.2535 184.95 48.8633 186.62 52.2559C188.342 55.6486 189.204 59.5893 189.204 64.0781C189.204 68.5669 188.342 72.5337 186.62 75.9786C184.95 79.3712 182.653 82.0071 179.73 83.8861C176.807 85.7129 173.545 86.6263 169.944 86.6263C166.864 86.6263 164.176 86.0261 161.88 84.8256C159.583 83.5729 157.782 81.9288 156.477 79.8932V86H143.089V28.0636H156.477V48.4979ZM175.581 64.0781C175.581 60.7376 174.641 58.1279 172.762 56.2489C170.935 54.3176 168.665 53.352 165.951 53.352C163.289 53.352 161.018 54.3176 159.139 56.2489C157.312 58.1801 156.399 60.8159 156.399 64.1564C156.399 67.4969 157.312 70.1327 159.139 72.0639C161.018 73.9952 163.289 74.9608 165.951 74.9608C168.613 74.9608 170.883 73.9952 172.762 72.0639C174.641 70.0805 175.581 67.4186 175.581 64.0781ZM237.409 63.4518C237.409 64.7044 237.331 66.0093 237.174 67.3664H206.875C207.084 70.0805 207.945 72.1683 209.459 73.6298C211.025 75.0391 212.93 75.7437 215.174 75.7437C218.515 75.7437 220.837 74.3344 222.142 71.5159H236.391C235.661 74.3866 234.33 76.9703 232.398 79.2668C230.519 81.5634 228.145 83.3642 225.274 84.669C222.403 85.9739 219.193 86.6263 215.644 86.6263C211.364 86.6263 207.554 85.7129 204.213 83.8861C200.873 82.0593 198.263 79.4495 196.384 76.0569C194.505 72.6642 193.565 68.6974 193.565 64.1564C193.565 59.6154 194.479 55.6486 196.306 52.2559C198.185 48.8633 200.794 46.2535 204.135 44.4267C207.475 42.5999 211.312 41.6864 215.644 41.6864C219.872 41.6864 223.63 42.5738 226.918 44.3484C230.206 46.123 232.764 48.6545 234.591 51.9428C236.47 55.2311 237.409 59.0674 237.409 63.4518ZM223.708 59.9286C223.708 57.632 222.925 55.8052 221.359 54.4481C219.793 53.0911 217.836 52.4125 215.487 52.4125C213.243 52.4125 211.338 53.065 209.772 54.3698C208.258 55.6747 207.319 57.5276 206.953 59.9286H223.708ZM257.86 49.594C259.426 47.193 261.383 45.314 263.732 43.9569C266.081 42.5477 268.69 41.843 271.561 41.843V56.014H267.881C264.541 56.014 262.036 56.7447 260.365 58.2062C258.695 59.6154 257.86 62.1208 257.86 65.7222V86H244.472V42.3128H257.86V49.594Z" fill="url(#paint0_linear_1_3)"/>
<rect x="218" y="73.0662" width="56" height="26.4946" rx="1.36336" fill="white"/>
<path d="M236.302 83.999C236.302 84.8765 236.1 85.6822 235.698 86.4158C235.295 87.1351 234.676 87.7178 233.842 88.1637C233.007 88.6097 231.972 88.8327 230.735 88.8327H228.447V94.2705H224.757V79.1222H230.735C231.943 79.1222 232.964 79.3308 233.799 79.748C234.633 80.1652 235.259 80.7406 235.676 81.4743C236.093 82.208 236.302 83.0495 236.302 83.999ZM230.454 85.8979C231.159 85.8979 231.684 85.7325 232.029 85.4016C232.375 85.0708 232.547 84.6032 232.547 83.999C232.547 83.3948 232.375 82.9273 232.029 82.5964C231.684 82.2655 231.159 82.1001 230.454 82.1001H228.447V85.8979H230.454ZM245.948 94.2705L242.798 88.5521H241.913V94.2705H238.223V79.1222H244.416C245.61 79.1222 246.624 79.3308 247.459 79.748C248.307 80.1652 248.94 80.7406 249.358 81.4743C249.775 82.1936 249.983 82.9992 249.983 83.8911C249.983 84.8981 249.696 85.7972 249.12 86.5885C248.559 87.3797 247.725 87.9407 246.617 88.2716L250.113 94.2705H245.948ZM241.913 85.9411H244.2C244.876 85.9411 245.38 85.7757 245.711 85.4448C246.056 85.1139 246.229 84.6464 246.229 84.0422C246.229 83.4667 246.056 83.0136 245.711 82.6827C245.38 82.3518 244.876 82.1864 244.2 82.1864H241.913V85.9411ZM259.464 94.4216C258.04 94.4216 256.73 94.0907 255.536 93.4289C254.357 92.7672 253.415 91.8465 252.71 90.6669C252.019 89.4728 251.674 88.1349 251.674 86.6532C251.674 85.1715 252.019 83.8408 252.71 82.6611C253.415 81.4815 254.357 80.5608 255.536 79.899C256.73 79.2373 258.04 78.9064 259.464 78.9064C260.888 78.9064 262.19 79.2373 263.37 79.899C264.564 80.5608 265.499 81.4815 266.175 82.6611C266.865 83.8408 267.211 85.1715 267.211 86.6532C267.211 88.1349 266.865 89.4728 266.175 90.6669C265.484 91.8465 264.549 92.7672 263.37 93.4289C262.19 94.0907 260.888 94.4216 259.464 94.4216ZM259.464 91.0553C260.672 91.0553 261.636 90.6525 262.355 89.8469C263.089 89.0413 263.456 87.9767 263.456 86.6532C263.456 85.3153 263.089 84.2508 262.355 83.4595C261.636 82.6539 260.672 82.2511 259.464 82.2511C258.241 82.2511 257.263 82.6467 256.529 83.438C255.81 84.2292 255.45 85.3009 255.45 86.6532C255.45 87.9911 255.81 89.0628 256.529 89.8684C257.263 90.6597 258.241 91.0553 259.464 91.0553Z" fill="#12131B"/>
<defs>
<linearGradient id="paint0_linear_1_3" x1="137" y1="25.0661" x2="137" y2="117" gradientUnits="userSpaceOnUse">
<stop stop-color="#F1881D"/>
<stop offset="1" stop-color="#FBC231"/>
</linearGradient>
</defs>
</svg>
