<svg width="31" height="31" viewBox="0 0 31 31" fill="none" xmlns="http://www.w3.org/2000/svg">
<path d="M27.2094 23.9612H4.4662C4.21487 23.9612 3.97383 23.8614 3.79612 23.6837C3.6184 23.5059 3.51856 23.2649 3.51856 23.0136C3.51856 22.7622 3.6184 22.5212 3.79612 22.3435C3.97383 22.1658 4.21487 22.0659 4.4662 22.0659H27.2094C27.4608 22.0659 27.7018 22.1658 27.8795 22.3435C28.0572 22.5212 28.1571 22.7622 28.1571 23.0136C28.1571 23.2649 28.0572 23.5059 27.8795 23.6837C27.7018 23.8614 27.4608 23.9612 27.2094 23.9612ZM25.3142 26.8041H6.36147C6.11014 26.8041 5.8691 26.7043 5.69139 26.5266C5.51367 26.3488 5.41383 26.1078 5.41383 25.8565C5.41383 25.6051 5.51367 25.3641 5.69139 25.1864C5.8691 25.0087 6.11014 24.9088 6.36147 24.9088H25.3142C25.5655 24.9088 25.8065 25.0087 25.9842 25.1864C26.162 25.3641 26.2618 25.6051 26.2618 25.8565C26.2618 26.1078 26.162 26.3488 25.9842 26.5266C25.8065 26.7043 25.5655 26.8041 25.3142 26.8041ZM2.57093 16.3801H1.62329V19.223C1.62329 19.7257 1.82297 20.2078 2.1784 20.5632C2.53383 20.9186 3.0159 21.1183 3.51856 21.1183H6.36147V20.1707C6.36037 19.1657 5.96066 18.2022 5.25003 17.4916C4.5394 16.7809 3.5759 16.3812 2.57093 16.3801Z" fill="#46EF75"/>
<path d="M29.1047 14.4848H30.0523V10.6942H29.1047C27.5973 10.6925 26.1521 10.0929 25.0861 9.027C24.0202 7.96107 23.4206 6.51587 23.4189 5.00843V4.06079H8.25674V5.00843C8.25501 6.51587 7.65542 7.96107 6.5895 9.027C5.52357 10.0929 4.07837 10.6925 2.57093 10.6942H1.62329V14.4848H2.57093C4.07837 14.4865 5.52357 15.0861 6.5895 16.152C7.65542 17.2179 8.25501 18.6631 8.25674 20.1706V21.1182H23.4189V20.1706C23.4206 18.6631 24.0202 17.2179 25.0861 16.152C26.1521 15.0861 27.5973 14.4865 29.1047 14.4848ZM15.8378 18.2753C14.7133 18.2753 13.614 17.9419 12.679 17.3171C11.7439 16.6923 11.0152 15.8043 10.5848 14.7654C10.1545 13.7264 10.0419 12.5832 10.2613 11.4803C10.4806 10.3773 11.0222 9.36421 11.8173 8.56903C12.6125 7.77386 13.6256 7.23234 14.7286 7.01295C15.8315 6.79356 16.9747 6.90616 18.0137 7.3365C19.0526 7.76685 19.9406 8.49561 20.5654 9.43064C21.1902 10.3657 21.5236 11.465 21.5236 12.5895C21.5219 14.0969 20.9223 15.5422 19.8564 16.6081C18.7905 17.674 17.3453 18.2736 15.8378 18.2753Z" fill="#46EF75"/>
<path d="M15.8378 16.38C17.9313 16.38 19.6284 14.6829 19.6284 12.5895C19.6284 10.496 17.9313 8.79895 15.8378 8.79895C13.7444 8.79895 12.0473 10.496 12.0473 12.5895C12.0473 14.6829 13.7444 16.38 15.8378 16.38Z" fill="#46EF75"/>
<path d="M25.3142 20.1706V21.1182H28.1571C28.6597 21.1182 29.1418 20.9185 29.4972 20.5631C29.8527 20.2077 30.0523 19.7256 30.0523 19.223V16.38H29.1047C28.0997 16.3811 27.1362 16.7809 26.4256 17.4915C25.715 18.2021 25.3153 19.1656 25.3142 20.1706ZM29.1047 8.79897H30.0523V5.95606C30.0523 5.4534 29.8527 4.97133 29.4972 4.6159C29.1418 4.26047 28.6597 4.06079 28.1571 4.06079H25.3142V5.00843C25.3153 6.0134 25.715 6.9769 26.4256 7.68753C27.1362 8.39816 28.0997 8.79787 29.1047 8.79897ZM6.36147 5.00843V4.06079H3.51856C3.0159 4.06079 2.53383 4.26047 2.1784 4.6159C1.82297 4.97133 1.62329 5.4534 1.62329 5.95606V8.79897H2.57093C3.5759 8.79787 4.5394 8.39816 5.25003 7.68753C5.96066 6.9769 6.36037 6.0134 6.36147 5.00843Z" fill="#46EF75"/>
</svg>
