<svg width="30" height="30" viewBox="0 0 30 30" fill="none" xmlns="http://www.w3.org/2000/svg">
<path d="M14.7162 15.1216C15.9896 15.1216 17.2344 14.744 18.2932 14.0365C19.3519 13.3291 20.1772 12.3235 20.6645 11.1471C21.1518 9.97061 21.2793 8.67608 21.0308 7.42716C20.7824 6.17825 20.1692 5.03104 19.2688 4.13062C18.3684 3.2302 17.2212 2.61701 15.9723 2.36859C14.7233 2.12016 13.4288 2.24766 12.2524 2.73497C11.0759 3.22227 10.0704 4.04749 9.36291 5.10627C8.65546 6.16505 8.27786 7.40984 8.27786 8.68322C8.27786 10.3908 8.95618 12.0284 10.1636 13.2358C11.371 14.4432 13.0086 15.1216 14.7162 15.1216ZM14.7162 16.9611C10.7256 16.9611 2.75928 19.4261 2.75928 24.3192V27.9983H26.6731V24.3192C26.6731 19.4261 18.7068 16.9611 14.7162 16.9611Z" fill="#FBB231"/>
</svg>
