<svg width="33" height="33" viewBox="0 0 33 33" fill="none" xmlns="http://www.w3.org/2000/svg">
<path d="M16.5 16.5C17.9277 16.5 19.3234 16.0766 20.5105 15.2834C21.6976 14.4902 22.6229 13.3628 23.1693 12.0437C23.7156 10.7247 23.8586 9.27325 23.58 7.87294C23.3015 6.47264 22.614 5.18639 21.6044 4.17683C20.5949 3.16727 19.3086 2.47975 17.9083 2.20121C16.508 1.92267 15.0566 2.06563 13.7375 2.612C12.4184 3.15837 11.291 4.08361 10.4978 5.27073C9.70462 6.45785 9.28125 7.85352 9.28125 9.28125C9.28125 11.1958 10.0418 13.0319 11.3956 14.3857C12.7494 15.7395 14.5855 16.5 16.5 16.5ZM16.5 18.5625C12.0257 18.5625 3.09375 21.3263 3.09375 26.8125V30.9375H29.9062V26.8125C29.9062 21.3263 20.9743 18.5625 16.5 18.5625Z" fill="white"/>
</svg>
