<svg width="34" height="34" viewBox="0 0 34 34" fill="none" xmlns="http://www.w3.org/2000/svg">
<path d="M31.0118 3.00155C30.7365 2.72307 30.4085 2.50215 30.047 2.35166C29.6855 2.20117 29.2977 2.12412 28.9061 2.12499H20.7427C20.2072 2.12599 19.6938 2.33812 19.3137 2.71534L2.99434 19.0314C2.43749 19.5894 2.12476 20.3455 2.12476 21.1338C2.12476 21.9221 2.43749 22.6782 2.99434 23.2362L10.7639 31.0057C11.322 31.5628 12.0784 31.8757 12.867 31.8757C13.6555 31.8757 14.4119 31.5628 14.97 31.0057L31.2827 14.6964C31.6607 14.3169 31.8736 13.8036 31.8751 13.268V5.09999C31.8775 4.71045 31.8024 4.32432 31.6542 3.96406C31.506 3.60381 31.2876 3.27663 31.0118 3.00155ZM25.5001 10.625C25.0798 10.625 24.669 10.5004 24.3195 10.2669C23.97 10.0334 23.6977 9.70149 23.5368 9.31319C23.376 8.9249 23.3339 8.49763 23.4159 8.08542C23.4979 7.67322 23.7003 7.29458 23.9975 6.99739C24.2947 6.7002 24.6733 6.49782 25.0855 6.41582C25.4977 6.33383 25.925 6.37591 26.3133 6.53675C26.7016 6.69758 27.0335 6.96995 27.267 7.31941C27.5005 7.66886 27.6251 8.07971 27.6251 8.49999C27.6251 9.06358 27.4012 9.60408 27.0027 10.0026C26.6042 10.4011 26.0637 10.625 25.5001 10.625Z" fill="#FBB231"/>
</svg>
